<?xml version="1.0" encoding="utf-8"?>
<!-- Generator: Adobe Illustrator 26.3.1, SVG Export Plug-In . SVG Version: 6.00 Build 0)  -->
<svg version="1.1" id="Capa_2" xmlns="http://www.w3.org/2000/svg" xmlns:xlink="http://www.w3.org/1999/xlink" x="0px" y="0px"
	 viewBox="0 0 151 24" style="enable-background:new 0 0 151 24;" xml:space="preserve">
<style type="text/css">
	.st0{fill:#2F2E46;}
	.st1{fill:#461481;}
</style>
<path class="st0" d="M34.2,8.7c-0.6-0.8-1.7-1.2-2.8-1.3c-1.2-0.2-2.6-0.1-3.7,0.3c-1.1,0.4-2.2,1-2.7,2c-0.1,0.2-0.2,0.4-0.2,0.6
	c0,0,0,0,0,0c0,0.1,0,0.2,0,0.3c0,0,0,0,0,0c0,0.1,0,0.3,0.1,0.4c0.2,0.5,0.7,0.6,1.2,0.6c0,0.9,0.2,1.8,1.1,2.5
	c0.8,0.6,2,0.7,3.1,0.6c1.1-0.1,2-0.5,2.8-1.2c0.7-0.6,1.1-1.4,1.3-2.3C34.7,10.3,34.8,9.4,34.2,8.7z M32,11
	c-0.1,0.6-0.3,1.3-0.7,1.8c-0.4,0.5-0.8,0.9-1.5,1.1c-0.1,0-0.3,0.1-0.2,0.1c-0.1,0-0.1,0-0.2,0c-0.2-0.1-0.6-0.2-0.8-0.4
	c-1.3-1.1-1-2.7-0.5-4.1c0.1-0.1,0.2-0.2,0.3-0.3c0.1-0.1,0.3-0.2,0.4-0.3c0,0,0.1,0,0.1,0c0.1-0.1,0.2-0.1,0.3-0.1
	c0,0,0.1,0,0.2-0.1c0.1,0,0.2-0.1,0.2-0.1c0,0,0.1,0,0.1,0c0,0,0.1,0,0.2,0c0.1,0,0.2,0,0.2,0c0,0,0,0,0.1,0c0.1,0,0.2,0,0.3,0
	c0.1,0,0.1,0,0.2,0c0.1,0,0.4,0.1,0.2,0c0.1,0,0.2,0,0.3,0.1c0,0,0,0,0,0c0.3,0.1,0.4,0.2,0.6,0.4C32.2,9.6,32.2,10.3,32,11z"/>
<path class="st0" d="M39.7,9.1c-0.4,0.2-0.8,0.4-1.1,0.7c0.3-2.6,0.7-5.1,1.3-7.7c0.1-0.3-1.5-0.4-1.6,0c-1.2,3.6-2,7.3-2.5,11.1
	c-0.1,0.7,2.2,0.6,2.5,0.1c0.6-1,1.3-2,2.3-2.8c0.2-0.2,0.5-0.4,0.8-0.5c0,0,0.1-0.1,0.3-0.1c0,0.1,0.1,0.2,0.1,0.2
	c0,0.3-0.1,0.6-0.2,0.8c-0.4,1-1.3,2-2.3,2.6c-1.1,0.6-2,0.5-3.2,0.3c-0.4-0.1-0.8-0.1-1.2,0c-0.1,0-0.6,0.2-0.4,0.4
	c1.4,1.4,4.4,1.1,6.1,0.4c1.7-0.7,3.5-2.4,3.8-4.2C44.7,8.3,41.2,8.4,39.7,9.1z"/>
<path class="st0" d="M48,12.9C48,12.9,48,12.9,48,12.9C47.9,12.8,47.9,12.8,48,12.9c-0.1-0.1-0.1-0.2-0.2-0.2
	c-0.2-0.5-0.2-1.1-0.1-1.6c0.1-1.2,0.4-2.5,0.9-3.7c0.2-0.5-1.6-0.5-1.8-0.2c-1,1.4-1.7,3.1-1.9,4.8c-0.1,0.8,0.3,1.5,1.1,1.8
	c0.6,0.2,1.2,0.3,1.8,0.2c0.5-0.1,1.3-0.2,1.2-0.8C49.1,12.9,48.4,12.8,48,12.9z"/>
<path class="st0" d="M64.9,13.3c-0.3,0-0.7,0-1,0.1c-0.4,0.1-0.8,0.3-1.2,0.5c-0.1,0-0.2,0.1-0.4,0.1c-0.1,0-0.2,0-0.2,0.1
	c-0.1,0-0.1,0-0.2,0c0,0,0,0,0,0c-0.2,0-0.4,0.1-0.6,0.1c-0.1,0-0.1,0-0.2,0c0,0-0.1,0-0.1,0c-0.2,0-0.4,0-0.6,0c0,0,0,0,0,0
	c-0.1,0-0.3,0-0.4-0.1c0,0-0.1,0-0.1,0c-0.1,0-0.1,0-0.2,0c0,0-0.2-0.1-0.2-0.1c-0.1,0-0.1-0.1-0.2-0.1c-0.3-0.2-0.5-0.4-0.6-0.7
	c0-0.1-0.1-0.2-0.1-0.2c0.2,0,0.5,0,0.7-0.1c1.9-0.7,3.5-1.9,4.6-3.6C64.2,8.7,65,7.5,64,7c-0.5-0.3-1.2-0.4-1.8-0.4
	c-0.7,0-1.4,0-2.1,0.2c-2.3,0.5-3.9,2.1-4.4,4.1c-0.2,0.8-0.2,1.7,0.2,2.5c0.2,0.4,0.4,0.7,0.7,0.9c-0.3,0-0.5,0.1-0.8,0.1
	c-0.3,0.1-0.5,0.2-0.8,0.2c-0.6,0-1-0.4-1.2-0.9c-0.3-0.7-0.3-1.5-0.2-2.2c0-0.7,0.1-1.4,0.2-2.1C54,6.5,55.2,3.7,57,1.3
	c0.3-0.3-1.5-0.5-1.8-0.2c-2.6,2.8-4.3,6.2-4.7,9.9c-0.1,0.8-0.2,1.7,0.1,2.5c0.3,1,1.1,1.6,2.1,1.9c0.9,0.3,1.9,0.3,2.9,0.2
	c0.5-0.1,1-0.2,1.5-0.4c0.2-0.1,0.3-0.2,0.4-0.3c0.2,0.1,0.5,0.2,0.8,0.3c1.3,0.4,2.9,0.4,4.2,0.1c0.7-0.1,1.4-0.3,2.1-0.7
	c0.4-0.3,0.9-0.6,1-1.1C65.5,13.4,65,13.4,64.9,13.3z M58.3,11.3c0.1-1.4,1-2.8,2.3-3.4c0.3-0.1,0.6-0.3,0.9-0.3
	c0.2,0,0.6-0.1,0.8,0c0.4,0.3-0.4,1.5-0.6,1.8c-0.8,1.3-2,2.3-3.4,3.1C58.3,12,58.3,11.6,58.3,11.3z"/>
<path class="st0" d="M83.4,12.6c-0.5-0.1-1-0.2-1.6-0.2c-0.6,0-1.2,0.1-1.7,0.1c-1,0.1-2.1,0.1-3.1,0.1c-1,0-2.1-0.1-3.1-0.2
	c-0.8-0.1-1.4-0.4-1.6-1.2c-0.4-1.6,1.1-3.2,2.2-4.3c1.2-1.2,2.6-2.3,4.2-3.1c0.9-0.4,1.9-0.9,3-0.9c0.2,0,0.4,0,0.5,0.2
	c0,0.2-0.2,0.4-0.3,0.6c-0.3,0.4-0.6,0.8-0.9,1.1c-0.2,0.2,0.4,0.2,0.5,0.2c0.3,0,0.7,0,0.9-0.1c0.6-0.4,2.3-1.6,1.5-2.3
	c-0.7-0.8-2.5-0.6-3.5-0.5c-2.4,0.3-4.7,1.5-6.5,2.9c-0.9,0.7-1.7,1.4-2.4,2.2c-0.7,0.8-1.5,1.8-1.8,2.8c-0.3,0.9,0,1.8,0.7,2.5
	c0.9,0.8,2.5,0.9,3.6,1.1c1.6,0.2,3.1,0.2,4.7,0.1c1.6-0.1,3.4-0.1,4.9-0.8C84.1,12.8,83.5,12.6,83.4,12.6z"/>
<path class="st0" d="M102.2,7.1c-0.6-1.2-2.6-1.2-3.8-0.9C97.1,6.4,96,7.1,95,7.9c-0.3,0.2,0.6,0.4,0.7,0.4c0.4,0,0.9,0,1.2-0.2
	c0.7-0.6,1.6-1.1,2.6-1.3c0.2,0,0.1,0,0.2,0c0.2,0.1,0.3,0.2,0.5,0.3c0.3,0.3,0.3,0.8,0.3,1.2c0,0.3-0.2,0.7-0.3,1
	c-0.2,0-0.4,0-0.6-0.1c-0.1,0-0.2,0-0.3,0c-0.1,0-0.2,0-0.3,0c0.1,0-0.2,0-0.3,0c-0.7,0.1-1.3,0.2-1.9,0.4c-0.8,0.3-1.6,0.6-2.3,1.1
	c0,0,0,0,0,0c0,0,0,0,0,0c0.4-1,0.6-2.1-0.1-3c-0.4-0.6-1.6-0.4-2.2-0.2c-1.5,0.5-2.9,1.2-4.2,2.1c0.9-2.5,1.9-5,3.3-7.3
	c0.2-0.3-1.3-0.4-1.5-0.1c-2.7,3.7-4.4,7.7-5.9,11.8c-0.3,0.9,2.2,1,2.6,0.3c1.4-2.2,3.3-4,5.7-5.2c0,0.6-0.3,1.2-0.5,1.7
	c-0.5,1.1-1.2,2.1-1.5,3.2c-0.4,1,2.4,1.1,2.8,0.4c0.2-0.4,0.4-0.8,0.6-1.2c0.4,0.8,1.7,1.1,2.7,1.3c0.7,0.1,1.4,0.1,2.1,0
	c0.1,0,0.2,0,0.3-0.1c0.4,0.4,2.1,0.4,2.3-0.1c0.3-0.6,0.3-1.3,0.5-1.9c0.2-0.6,0.4-1.3,0.6-1.9C102.1,9.3,102.8,8.2,102.2,7.1z
	 M97.9,13.2C97.9,13.2,97.9,13.2,97.9,13.2c-0.1,0-0.2,0-0.3,0c-0.1,0-0.1,0-0.2,0c0,0-0.1,0-0.1,0c0,0-0.1,0-0.2,0
	c-0.1,0-0.1,0-0.2,0c0,0-0.2,0-0.2,0c0,0-0.1,0-0.1,0c-0.1,0-0.2,0-0.3-0.1c0.2,0,0,0-0.1,0c-0.1,0-0.2-0.1-0.2-0.1c0,0-0.1,0-0.1,0
	c-0.1-0.1-0.2-0.1-0.2-0.3c-0.1-0.5,0.2-1.1,0.5-1.4c0.4-0.3,1-0.6,1.5-0.9c0.4-0.2,0.8-0.3,1.2-0.5c0.3-0.1,0.5-0.1,0.7-0.2
	c-0.2,0.4-0.5,0.9-0.7,1.3c-0.2,0.5-0.4,0.9-0.5,1.4c-0.1,0.2-0.2,0.5-0.2,0.7c0,0-0.1,0-0.1,0C98,13.2,98,13.2,97.9,13.2z"/>
<path class="st0" d="M117.6,5.8c-1-0.5-2.4-0.4-3.4-0.2c-1.6,0.4-3.1,1.3-4,2.6c-0.7,1.1-1.1,2.6-0.3,3.8c-0.2,0-0.5,0.1-0.7,0.2
	c-0.1,0-0.1,0-0.2,0.1c-0.1-0.1-0.1-0.2-0.2-0.2c-0.1-0.2-0.1-0.5-0.1-0.8c0.1-1.1,0.5-2.3,0.9-3.4c0.7-2.3,1.5-4.5,2.3-6.7
	c0.1-0.3-1.5-0.4-1.7-0.1c-1.4,2.8-2.8,5.6-3.7,8.5c-0.3,1-0.8,2.2-0.1,3.1c-0.2-0.2-0.8-0.1-1-0.1c-0.2,0-0.3,0.1-0.5,0.2
	c-0.1-0.5,0-1,0-1.5c0-1.3,0.1-2.5,0.3-3.7c0.5-2.6,1.4-5,2.9-7.2c0.2-0.3-1.4-0.5-1.7-0.1c-2.1,2.8-3.5,5.9-4,9.2
	c-0.1,0.8-0.2,1.7-0.2,2.5c0,0.6,0,1.4,0.6,1.9c0.7,0.5,1.8,0.5,2.6,0.2c0.5-0.2,1.4-0.8,0.9-1.4c0.1,0.2,0.3,0.3,0.6,0.5
	c0.8,0.4,1.7,0.4,2.6,0.2c0.4-0.1,0.9-0.2,1.2-0.5c0.8,0.5,1.8,0.7,2.7,0.8c0.6,0.1,1.3,0.1,1.9,0c0.5-0.1,1.4-0.2,1.6-0.7
	c0.3-0.5-1.1-0.6-1.4-0.5c-0.2,0-0.5,0.1-0.6,0.1c0.2,0,0,0,0,0c0,0,0,0-0.1,0c0,0,0,0,0,0c-0.1,0-0.1,0-0.2,0c-0.2,0-0.4,0-0.5-0.1
	c-0.1,0-0.2,0-0.2,0c0,0,0,0,0,0c0,0,0,0,0,0c-0.2,0-0.3-0.1-0.5-0.1c0,0,0,0,0,0c-0.1,0-0.1,0-0.2-0.1c-0.2-0.1-0.2-0.1-0.4-0.2
	c-0.6-0.5-0.8-1.2-0.7-1.9c0.1,0,0.2,0,0.3,0c1.9-0.4,3.6-1.3,5-2.5C117.8,7.2,118.6,6.4,117.6,5.8z M115.9,6.8
	c-0.1,0.3-0.4,0.5-0.6,0.7c-0.9,0.9-2,1.6-3.3,2c0.1-0.2,0.1-0.5,0.2-0.7c0.5-1,1.3-1.9,2.4-2.4c0.2-0.1,0.4-0.2,0.7-0.2
	c0.1,0,0.3-0.1,0.4-0.1c0.1,0,0.2,0,0.1,0C116,6.3,116,6.6,115.9,6.8z"/>
<path class="st0" d="M125.1,7.4c-0.6-1.4-2.7-1.6-4.2-1.1c-0.5,0.2-0.9,0.4-1.2,0.7c0-0.1,0-0.2,0-0.3c0-0.1-0.8-0.1-0.9,0
	c-0.2,0.6-0.4,1.3-0.5,1.9c-0.1,0.2-0.2,0.4-0.3,0.5c-0.4,0.7-0.6,1.4-0.8,2.1c-0.2,0.7-0.3,1.6-0.1,2.4c0.1,0.7,2.5,0.6,2.4,0
	c0-0.6,0-1.1,0-1.7c0.1-0.6,0.2-1.1,0.3-1.7c0.3-1,0.9-2.1,1.6-2.9c0.2-0.2,0.4-0.4,0.6-0.5c0.1,0,0.3-0.1,0.3-0.2c0,0,0,0,0,0
	c0.1,0.1,0.2,0.1,0.3,0.2c0.2,0.2,0.3,0.4,0.4,0.7c0.4,1.2,0.5,2.4,0.3,3.6c-0.1,1.1-0.5,2.1-1.5,2.8c-0.3,0.2-0.1,0.4,0.2,0.5
	c0.4,0.2,1,0.2,1.4,0.1c1.6-0.4,2-1.7,2.2-3C125.9,10.4,125.7,8.8,125.1,7.4z"/>
<path class="st0" d="M149.6,11.5c-2,0.4-3.8,1.5-5.9,1.6c-0.2,0-0.6,0-0.8,0c-0.4-0.1-0.8-0.3-1.1-0.5c-0.3-0.3-0.5-0.8-0.5-1.2
	c2.2,0,4.3-0.4,6.3-1.3c0.8-0.4,2.6-1.2,1.9-2.3c-0.3-0.5-0.9-0.7-1.5-0.9c-0.7-0.2-1.4-0.3-2.1-0.3c-2.5-0.1-5.2,0.7-6.7,2.6
	c-0.7,0.8-0.9,1.9-0.6,2.9c0.4,1.1,1.6,1.8,2.8,2.1c1.7,0.4,3.5,0.2,5.2-0.2c0.7-0.2,1.5-0.5,2.1-0.8c0.8-0.3,1.7-0.7,2.1-1.4
	C151.2,11.4,149.8,11.5,149.6,11.5z M144.8,7.8c0.6-0.1,1.2-0.1,1.9,0.1c0.8,0.3-0.3,1.1-0.6,1.3c-1.4,0.8-3,1.2-4.7,1.3
	C141.8,9.1,143.3,8.1,144.8,7.8z"/>
<path class="st1" d="M137.7,8.9c0-0.9-2.3-0.7-2.8-0.2c-0.9,1.1-4.8,4.8-6.1,2.7c-0.7-1.1,0.5-2,1.4-2.6c0.9-0.6,1.9-1,3-1.2l0,0.3
	c0,0.3,1.4,0.3,1.5,0c0.1-0.2,0.2-0.5,0.3-0.7c0.2-0.4-0.7-0.4-1-0.4c-2.1,0-4.3,0.6-6,1.6c-1.5,0.9-3.1,2.4-1.4,3.9
	c1.5,1.3,3.9,1.1,5.7,0.5c0.9-0.3,1.8-0.8,2.5-1.3c-0.1,1.4-0.3,2.7-1,3.9c-1,1.8-2.8,3.1-4.7,4c-2.3,1-4.8,1.5-7.3,1.9
	c-2.6,0.4-5.2,0.8-7.8,0.9c-5.1,0.3-10.5,0.3-15.6-0.7c-1.1-0.2-2.2-0.5-3.2-0.9c-0.5-0.2-1.3-0.5-1.2-1.1c0.1-0.5,1.1-0.8,1.6-1
	c2.3-0.9,4.7-1.2,7.2-1.5c3.1-0.3,6.2-0.5,9.4-0.6c1.4,0,2.9,0,4.3,0.1c0.4,0,4.8,0.4,4.7,0.8c-0.2,0.6,1.9,0.7,2.2,0.2
	c0.8-1.6-5.8-1.9-6.7-1.9c-3.3-0.1-6.6,0-9.8,0.2c-3.1,0.2-6.3,0.4-9.3,1c-1.4,0.3-2.8,0.7-4,1.2c-0.8,0.4-2.1,0.9-1.9,1.9
	c0.2,1,1.7,1.6,2.7,1.9c1.5,0.5,3,0.9,4.6,1.2c3.1,0.6,6.3,0.7,9.5,0.7c6.5,0.1,13.4-0.5,19.6-2.4c2.9-0.9,5.6-2.2,7.5-4.3
	C137.8,14.9,137.9,11.8,137.7,8.9z"/>
<path class="st1" d="M41.8,16.2c-6.2,0.8-12.1,2.8-18.1,4.5c-0.6,0.2-1.4,0.6-2.1,0.6c-0.9,0-0.9-0.6-0.8-1.4c0.2-1.5,0.6-2.9,1-4.3
	c0.4-1.5,0.8-2.9,1.3-4.3c0.4-1.2,0.7-2.3,0.3-3.5c-0.2-0.7-2-0.6-2.4-0.3c-2.9,1.6-5,3.9-7.2,6.2c0-0.1,0-0.2,0-0.2
	c0.2-1.1,0.5-2.2,0.9-3.3c0.7-2,1.6-3.9,2.6-5.8c0.5-0.9-2.1-0.8-2.5-0.5C12,6,9.4,8.4,6.8,10.9c-1.2,1.2-2.4,2.4-3.6,3.7
	c-1,1.1-2,2.1-2.3,3.6c-0.1,0.6,2.2,0.7,2.4,0.1c0.5-1.5,1.9-2.6,3-3.7c1.2-1.2,2.3-2.3,3.5-3.5c1-0.9,2-1.9,3-2.8
	c-0.4,0.9-0.7,1.9-1,2.9c-0.5,1.7-2.1,5,0.7,5.3c2.3,0.2,3.7-2,5.1-3.5c1-1.1,2-2.1,3.2-3c-0.2,1.1-0.8,2.1-1,3
	c-0.5,1.6-0.9,3.2-1.4,4.7c-0.3,1.2-1.1,3-0.1,4c1,1.1,2.8,1.2,4.1,1c1.7-0.2,3.4-0.8,5-1.3c1.8-0.5,3.5-1,5.3-1.5
	c3.5-1,7-2,10.3-3.5C43.4,16.4,41.9,16.1,41.8,16.2z"/>
</svg>
